<?xml version="1.0" encoding="UTF-8"?>
<svg width="257px" height="45px" viewBox="0 0 257 45" version="1.1" xmlns="http://www.w3.org/2000/svg" xmlns:xlink="http://www.w3.org/1999/xlink">
    <!-- Generator: Sketch 41.2 (35397) - http://www.bohemiancoding.com/sketch -->
    <title>logo-text</title>
    <desc>Created with Sketch.</desc>
    <defs></defs>
    <g id="Covers" stroke="none" stroke-width="1" fill="none" fill-rule="evenodd">
        <g id="logo-text">
            <g id="v">
                <polygon id="Triangle-1" fill="#66CCFF" points="0 0 45 0 22.5 45"></polygon>
                <polygon id="Triangle-1" fill="#000000" points="13.2786885 0 32.4590164 0 22.8688525 19.1803279"></polygon>
            </g>
            <path d="M67.436,10.36 L53,10.36 L53,11.872 L59.3,11.872 L59.3,34.984 L60.992,34.984 L60.992,11.872 L67.256,11.872 L67.436,10.36 Z M84.824,34.984 L78.956,23.32 C81.98,22.492 83.744,20.404 83.744,16.948 C83.744,12.808 81.404,10.36 75.752,10.36 L71.216,10.36 L71.216,34.984 L72.872,34.984 L72.872,23.716 L76.688,23.716 C76.904,23.68 77.12,23.68 77.3,23.644 L82.916,34.984 L84.824,34.984 Z M75.968,22.276 L72.872,22.276 L72.872,11.8 L75.644,11.8 C80.396,11.8 81.98,13.636 81.98,16.948 C81.98,20.62 79.964,22.276 75.968,22.276 Z M101.24,34.984 L102.968,34.984 L95.84,10.36 L93.752,10.36 L86.66,34.984 L88.28,34.984 L90.224,28.036 L99.332,28.036 L101.24,34.984 Z M90.62,26.596 L94.796,11.728 L98.936,26.596 L90.62,26.596 Z M118.628,10.36 L116.972,10.36 L110.816,33.292 L104.624,10.36 L102.896,10.36 L109.808,34.984 L111.788,34.984 L118.628,10.36 Z M124.424,10.36 L122.768,10.36 L122.768,34.984 L124.424,34.984 L124.424,10.36 Z M136.232,10 C132.524,10 130.04,12.664 130.04,15.904 C130.04,19.108 131.696,20.944 136.016,22.528 C139.832,23.932 141.092,25.3 141.092,28.36 C141.092,31.672 139.004,33.904 135.836,33.904 C133.352,33.904 131.732,32.824 130.184,31.348 L129.176,32.32 C130.94,34.156 132.992,35.38 135.872,35.38 C140.012,35.38 142.82,32.32 142.82,28.324 C142.82,24.328 140.732,22.564 136.736,21.124 C132.992,19.756 131.732,18.46 131.732,15.868 C131.732,13.348 133.496,11.476 136.232,11.476 C138.248,11.476 139.616,12.124 141.2,13.672 L142.172,12.664 C140.552,11.008 138.896,10 136.232,10 Z M169.64,10.36 L167.984,10.36 L161.828,33.292 L155.636,10.36 L153.908,10.36 L160.82,34.984 L162.8,34.984 L169.64,10.36 Z M180.584,10 C175.508,10 171.98,14.284 171.98,22.744 C171.98,31.204 175.472,35.38 180.584,35.38 C185.84,35.38 189.152,31.06 189.152,22.708 C189.152,14.068 185.732,10 180.584,10 Z M180.584,11.476 C184.724,11.476 187.424,14.824 187.424,22.708 C187.424,30.484 184.832,33.904 180.584,33.904 C176.552,33.904 173.744,30.484 173.744,22.744 C173.744,14.86 176.516,11.476 180.584,11.476 Z M202.04,10 C197.288,10 193.436,13.888 193.436,22.672 C193.436,31.24 197.108,35.38 202.004,35.38 C204.524,35.38 206.288,34.3 207.62,32.932 L206.648,31.852 C205.46,32.968 204.236,33.832 202.04,33.832 C198.188,33.832 195.2,30.556 195.2,22.672 C195.2,14.392 198.296,11.476 202.112,11.476 C203.912,11.476 205.064,12.052 206.468,13.24 L207.404,12.196 C205.892,10.828 204.38,10 202.04,10 Z M213.488,10.36 L211.832,10.36 L211.832,34.984 L213.488,34.984 L213.488,10.36 Z M234.224,10.36 L232.64,10.36 L232.64,25.912 C232.64,29.188 232.784,31.852 232.856,33.076 L222.632,10.36 L220.472,10.36 L220.472,34.984 L222.056,34.984 L222.056,20.26 C222.056,15.904 221.948,13.816 221.84,12.268 L232.028,34.984 L234.224,34.984 L234.224,10.36 Z M248.444,10 C243.368,10 239.84,14.284 239.84,22.744 C239.84,31.204 243.332,35.38 248.444,35.38 C253.7,35.38 257.012,31.06 257.012,22.708 C257.012,14.068 253.592,10 248.444,10 Z M248.444,11.476 C252.584,11.476 255.284,14.824 255.284,22.708 C255.284,30.484 252.692,33.904 248.444,33.904 C244.412,33.904 241.604,30.484 241.604,22.744 C241.604,14.86 244.376,11.476 248.444,11.476 Z" id="TRAVIS-VOCINO" fill="#999999"></path>
        </g>
    </g>
</svg>